<mxfile host="app.diagrams.net" agent="Mozilla/5.0 (Windows NT 10.0; Win64; x64) AppleWebKit/537.36 (KHTML, like Gecko) Chrome/129.0.0.0 Safari/537.36" version="24.7.16">
  <diagram name="Page-1" id="NhIDuVOYDbAxqSGeZXAM">
    <mxGraphModel dx="1050" dy="571" grid="1" gridSize="10" guides="1" tooltips="1" connect="1" arrows="1" fold="1" page="1" pageScale="1" pageWidth="850" pageHeight="1100" background="none" math="0" shadow="0">
      <root>
        <mxCell id="0" />
        <mxCell id="1" parent="0" />
        <mxCell id="NMYamTKyMhTsFTp2hKPJ-4" style="edgeStyle=orthogonalEdgeStyle;rounded=0;orthogonalLoop=1;jettySize=auto;html=1;" parent="1" source="AFMVp5On0U9nat8kgEks-13" edge="1">
          <mxGeometry relative="1" as="geometry">
            <mxPoint x="120" y="150" as="targetPoint" />
          </mxGeometry>
        </mxCell>
        <mxCell id="AFMVp5On0U9nat8kgEks-13" value="Login Page" style="rounded=0;whiteSpace=wrap;html=1;" parent="1" vertex="1">
          <mxGeometry x="40" y="40" width="160" height="60" as="geometry" />
        </mxCell>
        <mxCell id="HnliYMq7yOIC07qW_UCj-3" style="edgeStyle=orthogonalEdgeStyle;rounded=0;orthogonalLoop=1;jettySize=auto;html=1;exitX=0.5;exitY=1;exitDx=0;exitDy=0;entryX=0.5;entryY=0;entryDx=0;entryDy=0;" edge="1" parent="1" source="HnliYMq7yOIC07qW_UCj-1" target="HnliYMq7yOIC07qW_UCj-2">
          <mxGeometry relative="1" as="geometry" />
        </mxCell>
        <mxCell id="HnliYMq7yOIC07qW_UCj-1" value="Enter Username and Password" style="rounded=0;whiteSpace=wrap;html=1;" vertex="1" parent="1">
          <mxGeometry x="40" y="150" width="160" height="60" as="geometry" />
        </mxCell>
        <mxCell id="HnliYMq7yOIC07qW_UCj-6" style="edgeStyle=orthogonalEdgeStyle;rounded=0;orthogonalLoop=1;jettySize=auto;html=1;exitX=1;exitY=0.5;exitDx=0;exitDy=0;" edge="1" parent="1" source="HnliYMq7yOIC07qW_UCj-2" target="AFMVp5On0U9nat8kgEks-13">
          <mxGeometry relative="1" as="geometry">
            <mxPoint x="240" y="70" as="targetPoint" />
            <Array as="points">
              <mxPoint x="241" y="305" />
              <mxPoint x="241" y="70" />
            </Array>
          </mxGeometry>
        </mxCell>
        <mxCell id="HnliYMq7yOIC07qW_UCj-11" value="" style="edgeStyle=orthogonalEdgeStyle;rounded=0;orthogonalLoop=1;jettySize=auto;html=1;exitX=0.5;exitY=1;exitDx=0;exitDy=0;" edge="1" parent="1" source="HnliYMq7yOIC07qW_UCj-2" target="HnliYMq7yOIC07qW_UCj-10">
          <mxGeometry relative="1" as="geometry" />
        </mxCell>
        <mxCell id="HnliYMq7yOIC07qW_UCj-2" value="Authentication Status" style="rhombus;whiteSpace=wrap;html=1;" vertex="1" parent="1">
          <mxGeometry x="65" y="250" width="110" height="110" as="geometry" />
        </mxCell>
        <mxCell id="HnliYMq7yOIC07qW_UCj-5" value="False (Error Message)" style="text;html=1;align=center;verticalAlign=middle;whiteSpace=wrap;rounded=0;" vertex="1" parent="1">
          <mxGeometry x="175" y="267" width="60" height="30" as="geometry" />
        </mxCell>
        <mxCell id="HnliYMq7yOIC07qW_UCj-9" value="True" style="text;html=1;align=center;verticalAlign=middle;whiteSpace=wrap;rounded=0;" vertex="1" parent="1">
          <mxGeometry x="110" y="354" width="60" height="30" as="geometry" />
        </mxCell>
        <mxCell id="HnliYMq7yOIC07qW_UCj-13" value="" style="edgeStyle=orthogonalEdgeStyle;rounded=0;orthogonalLoop=1;jettySize=auto;html=1;" edge="1" parent="1" source="HnliYMq7yOIC07qW_UCj-10" target="HnliYMq7yOIC07qW_UCj-12">
          <mxGeometry relative="1" as="geometry" />
        </mxCell>
        <mxCell id="HnliYMq7yOIC07qW_UCj-15" value="" style="edgeStyle=orthogonalEdgeStyle;rounded=0;orthogonalLoop=1;jettySize=auto;html=1;" edge="1" parent="1" source="HnliYMq7yOIC07qW_UCj-10" target="HnliYMq7yOIC07qW_UCj-14">
          <mxGeometry relative="1" as="geometry" />
        </mxCell>
        <mxCell id="HnliYMq7yOIC07qW_UCj-10" value="Select Page" style="rhombus;whiteSpace=wrap;html=1;" vertex="1" parent="1">
          <mxGeometry x="305" y="267" width="110" height="110" as="geometry" />
        </mxCell>
        <mxCell id="HnliYMq7yOIC07qW_UCj-12" value="Read Information about the rules and amendments" style="whiteSpace=wrap;html=1;" vertex="1" parent="1">
          <mxGeometry x="300" y="160" width="120" height="60" as="geometry" />
        </mxCell>
        <mxCell id="HnliYMq7yOIC07qW_UCj-19" value="" style="edgeStyle=orthogonalEdgeStyle;rounded=0;orthogonalLoop=1;jettySize=auto;html=1;" edge="1" parent="1" source="HnliYMq7yOIC07qW_UCj-14" target="HnliYMq7yOIC07qW_UCj-18">
          <mxGeometry relative="1" as="geometry" />
        </mxCell>
        <mxCell id="HnliYMq7yOIC07qW_UCj-14" value="Plug in to your secondary camera" style="whiteSpace=wrap;html=1;" vertex="1" parent="1">
          <mxGeometry x="480" y="292" width="160" height="60" as="geometry" />
        </mxCell>
        <mxCell id="HnliYMq7yOIC07qW_UCj-16" value="Information Page" style="text;html=1;align=center;verticalAlign=middle;whiteSpace=wrap;rounded=0;" vertex="1" parent="1">
          <mxGeometry x="367" y="237" width="67" height="30" as="geometry" />
        </mxCell>
        <mxCell id="HnliYMq7yOIC07qW_UCj-17" value="Note Scanning" style="text;html=1;align=center;verticalAlign=middle;whiteSpace=wrap;rounded=0;" vertex="1" parent="1">
          <mxGeometry x="406" y="330" width="67" height="30" as="geometry" />
        </mxCell>
        <mxCell id="HnliYMq7yOIC07qW_UCj-21" value="" style="edgeStyle=orthogonalEdgeStyle;rounded=0;orthogonalLoop=1;jettySize=auto;html=1;" edge="1" parent="1" source="HnliYMq7yOIC07qW_UCj-18" target="HnliYMq7yOIC07qW_UCj-20">
          <mxGeometry relative="1" as="geometry" />
        </mxCell>
        <mxCell id="HnliYMq7yOIC07qW_UCj-18" value="Start the live feed and the watershed medthod automatically starts working live" style="whiteSpace=wrap;html=1;" vertex="1" parent="1">
          <mxGeometry x="480" y="190" width="160" height="60" as="geometry" />
        </mxCell>
        <mxCell id="HnliYMq7yOIC07qW_UCj-20" value="Click a frame and apply watershed method on it" style="whiteSpace=wrap;html=1;" vertex="1" parent="1">
          <mxGeometry x="480" y="80" width="160" height="60" as="geometry" />
        </mxCell>
        <mxCell id="HnliYMq7yOIC07qW_UCj-26" value="" style="endArrow=none;dashed=1;html=1;rounded=0;" edge="1" parent="1">
          <mxGeometry width="50" height="50" relative="1" as="geometry">
            <mxPoint x="560" y="80" as="sourcePoint" />
            <mxPoint x="560" y="40" as="targetPoint" />
            <Array as="points">
              <mxPoint x="560" y="40" />
              <mxPoint x="750" y="40" />
            </Array>
          </mxGeometry>
        </mxCell>
        <mxCell id="HnliYMq7yOIC07qW_UCj-31" value="" style="endArrow=none;dashed=1;html=1;rounded=0;" edge="1" parent="1">
          <mxGeometry width="50" height="50" relative="1" as="geometry">
            <mxPoint x="750.5" y="80" as="sourcePoint" />
            <mxPoint x="750.5" y="40" as="targetPoint" />
          </mxGeometry>
        </mxCell>
        <mxCell id="HnliYMq7yOIC07qW_UCj-32" value="Select which denomination note is it" style="rounded=0;whiteSpace=wrap;html=1;" vertex="1" parent="1">
          <mxGeometry x="676" y="80" width="150" height="60" as="geometry" />
        </mxCell>
        <mxCell id="HnliYMq7yOIC07qW_UCj-33" value="Calculate the area of the note using the reference object" style="rounded=0;whiteSpace=wrap;html=1;" vertex="1" parent="1">
          <mxGeometry x="676" y="190" width="150" height="60" as="geometry" />
        </mxCell>
        <mxCell id="HnliYMq7yOIC07qW_UCj-34" value="" style="endArrow=none;dashed=1;html=1;rounded=0;exitX=0.5;exitY=0;exitDx=0;exitDy=0;entryX=0.5;entryY=1;entryDx=0;entryDy=0;" edge="1" parent="1" source="HnliYMq7yOIC07qW_UCj-33" target="HnliYMq7yOIC07qW_UCj-32">
          <mxGeometry width="50" height="50" relative="1" as="geometry">
            <mxPoint x="760.5" y="90" as="sourcePoint" />
            <mxPoint x="760.5" y="50" as="targetPoint" />
          </mxGeometry>
        </mxCell>
        <mxCell id="HnliYMq7yOIC07qW_UCj-36" value="" style="endArrow=none;dashed=1;html=1;rounded=0;exitX=0.5;exitY=0;exitDx=0;exitDy=0;entryX=0.5;entryY=1;entryDx=0;entryDy=0;" edge="1" parent="1" source="HnliYMq7yOIC07qW_UCj-38" target="HnliYMq7yOIC07qW_UCj-33">
          <mxGeometry width="50" height="50" relative="1" as="geometry">
            <mxPoint x="751" y="292" as="sourcePoint" />
            <mxPoint x="761" y="150" as="targetPoint" />
          </mxGeometry>
        </mxCell>
        <mxCell id="HnliYMq7yOIC07qW_UCj-38" value="Is area greater than permitted?" style="rhombus;whiteSpace=wrap;html=1;" vertex="1" parent="1">
          <mxGeometry x="673" y="340" width="156" height="148" as="geometry" />
        </mxCell>
        <mxCell id="HnliYMq7yOIC07qW_UCj-40" value="" style="endArrow=none;dashed=1;html=1;rounded=0;entryX=0;entryY=0.5;entryDx=0;entryDy=0;exitX=1;exitY=0.5;exitDx=0;exitDy=0;" edge="1" parent="1" source="HnliYMq7yOIC07qW_UCj-42" target="HnliYMq7yOIC07qW_UCj-38">
          <mxGeometry width="50" height="50" relative="1" as="geometry">
            <mxPoint x="660" y="440" as="sourcePoint" />
            <mxPoint x="761" y="260" as="targetPoint" />
          </mxGeometry>
        </mxCell>
        <mxCell id="HnliYMq7yOIC07qW_UCj-41" value="" style="endArrow=none;dashed=1;html=1;rounded=0;entryX=0.5;entryY=1;entryDx=0;entryDy=0;" edge="1" parent="1" target="HnliYMq7yOIC07qW_UCj-38">
          <mxGeometry width="50" height="50" relative="1" as="geometry">
            <mxPoint x="751" y="530" as="sourcePoint" />
            <mxPoint x="683" y="424" as="targetPoint" />
          </mxGeometry>
        </mxCell>
        <mxCell id="HnliYMq7yOIC07qW_UCj-42" value="Show a message saying non refundable" style="rounded=0;whiteSpace=wrap;html=1;" vertex="1" parent="1">
          <mxGeometry x="480" y="384" width="160" height="60" as="geometry" />
        </mxCell>
        <mxCell id="HnliYMq7yOIC07qW_UCj-44" value="Shows a message saying its refundable" style="rounded=0;whiteSpace=wrap;html=1;" vertex="1" parent="1">
          <mxGeometry x="676" y="530" width="150" height="60" as="geometry" />
        </mxCell>
        <mxCell id="HnliYMq7yOIC07qW_UCj-45" value="" style="endArrow=none;dashed=1;html=1;rounded=0;entryX=0;entryY=0.5;entryDx=0;entryDy=0;exitX=1;exitY=0.5;exitDx=0;exitDy=0;" edge="1" parent="1" source="HnliYMq7yOIC07qW_UCj-46" target="HnliYMq7yOIC07qW_UCj-44">
          <mxGeometry width="50" height="50" relative="1" as="geometry">
            <mxPoint x="650" y="590" as="sourcePoint" />
            <mxPoint x="683" y="424" as="targetPoint" />
          </mxGeometry>
        </mxCell>
        <mxCell id="HnliYMq7yOIC07qW_UCj-46" value="Increase the count of number of notes of that particular denomination by +1" style="rounded=0;whiteSpace=wrap;html=1;" vertex="1" parent="1">
          <mxGeometry x="480" y="530" width="160" height="60" as="geometry" />
        </mxCell>
        <mxCell id="HnliYMq7yOIC07qW_UCj-47" value="Clear&#39;s the tally when the user is finished by clicking a button" style="rounded=0;whiteSpace=wrap;html=1;" vertex="1" parent="1">
          <mxGeometry x="280" y="530" width="160" height="60" as="geometry" />
        </mxCell>
        <mxCell id="HnliYMq7yOIC07qW_UCj-48" value="" style="endArrow=none;dashed=1;html=1;rounded=0;entryX=0;entryY=0.5;entryDx=0;entryDy=0;exitX=1;exitY=0.5;exitDx=0;exitDy=0;" edge="1" parent="1" source="HnliYMq7yOIC07qW_UCj-47" target="HnliYMq7yOIC07qW_UCj-46">
          <mxGeometry width="50" height="50" relative="1" as="geometry">
            <mxPoint x="650" y="570" as="sourcePoint" />
            <mxPoint x="686" y="570" as="targetPoint" />
          </mxGeometry>
        </mxCell>
        <mxCell id="HnliYMq7yOIC07qW_UCj-49" value="Program Flow Legend" style="swimlane;whiteSpace=wrap;html=1;" vertex="1" parent="1">
          <mxGeometry x="40" y="430" width="200" height="110" as="geometry" />
        </mxCell>
        <mxCell id="HnliYMq7yOIC07qW_UCj-54" value="Finished till now" style="text;html=1;align=center;verticalAlign=middle;whiteSpace=wrap;rounded=0;" vertex="1" parent="HnliYMq7yOIC07qW_UCj-49">
          <mxGeometry x="66.5" y="34" width="103.5" height="30" as="geometry" />
        </mxCell>
        <mxCell id="HnliYMq7yOIC07qW_UCj-55" value="Future Plans" style="text;html=1;align=center;verticalAlign=middle;whiteSpace=wrap;rounded=0;" vertex="1" parent="HnliYMq7yOIC07qW_UCj-49">
          <mxGeometry x="58" y="64" width="103.5" height="30" as="geometry" />
        </mxCell>
        <mxCell id="HnliYMq7yOIC07qW_UCj-50" value="" style="endArrow=classic;html=1;rounded=0;" edge="1" parent="1">
          <mxGeometry width="50" height="50" relative="1" as="geometry">
            <mxPoint x="50" y="480" as="sourcePoint" />
            <mxPoint x="100" y="480" as="targetPoint" />
          </mxGeometry>
        </mxCell>
        <mxCell id="HnliYMq7yOIC07qW_UCj-51" value="" style="endArrow=none;dashed=1;html=1;rounded=0;" edge="1" parent="1">
          <mxGeometry width="50" height="50" relative="1" as="geometry">
            <mxPoint x="50" y="510" as="sourcePoint" />
            <mxPoint x="100" y="510" as="targetPoint" />
          </mxGeometry>
        </mxCell>
        <mxCell id="HnliYMq7yOIC07qW_UCj-52" value="No" style="text;html=1;align=center;verticalAlign=middle;whiteSpace=wrap;rounded=0;" vertex="1" parent="1">
          <mxGeometry x="626" y="411" width="67" height="30" as="geometry" />
        </mxCell>
        <mxCell id="HnliYMq7yOIC07qW_UCj-53" value="Yes" style="text;html=1;align=center;verticalAlign=middle;whiteSpace=wrap;rounded=0;" vertex="1" parent="1">
          <mxGeometry x="736" y="492" width="67" height="30" as="geometry" />
        </mxCell>
      </root>
    </mxGraphModel>
  </diagram>
</mxfile>
